<?xml version="1.0" encoding="UTF-8" standalone="no"?>
<!DOCTYPE svg PUBLIC "-//W3C//DTD SVG 1.1//EN" "http://www.w3.org/Graphics/SVG/1.1/DTD/svg11.dtd">
<svg width="100%" height="100%" viewBox="0 0 50 50" version="1.1" xmlns="http://www.w3.org/2000/svg" xmlns:xlink="http://www.w3.org/1999/xlink" xml:space="preserve" xmlns:serif="http://www.serif.com/" style="fill-rule:evenodd;clip-rule:evenodd;stroke-linejoin:round;stroke-miterlimit:2;">
    <g transform="matrix(0.648009,0,0,0.648009,-221.67,-78.7459)">
        <path d="M380.657,128.497C393.39,128.497 403.728,138.835 403.728,151.568C403.728,174.427 380.657,191.701 380.657,191.701C380.657,191.701 357.587,172.946 357.587,151.568C357.587,138.835 367.924,128.497 380.657,128.497ZM380.657,141.029C374.875,141.029 370.181,145.724 370.181,151.506C370.181,157.288 374.875,161.983 380.657,161.983C386.439,161.983 391.134,157.288 391.134,151.506C391.134,145.724 386.439,141.029 380.657,141.029Z" style="fill:rgb(255,200,0);"/>
    </g>
</svg>
