<?xml version="1.0" encoding="UTF-8" standalone="no"?>
<!DOCTYPE svg PUBLIC "-//W3C//DTD SVG 1.1//EN" "http://www.w3.org/Graphics/SVG/1.1/DTD/svg11.dtd">
<svg width="100%" height="100%" viewBox="0 0 50 50" version="1.1" xmlns="http://www.w3.org/2000/svg" xmlns:xlink="http://www.w3.org/1999/xlink" xml:space="preserve" xmlns:serif="http://www.serif.com/" style="fill-rule:evenodd;clip-rule:evenodd;stroke-linejoin:round;stroke-miterlimit:2;">
    <g transform="matrix(0.735549,0,0,0.735549,-11.7775,-11.7781)">
        <path d="M49.292,41.891C49.201,41.891 49.111,41.896 49.021,41.898L48.983,39.399C49.085,39.396 49.188,39.395 49.292,39.395C55.438,39.395 60.438,44.396 60.438,50.542C60.438,50.635 60.436,50.729 60.434,50.822L57.936,50.758C57.939,50.687 57.942,50.615 57.942,50.543C57.942,45.772 54.062,41.891 49.292,41.891ZM49.292,35.153C49.166,35.153 49.042,35.156 48.917,35.158L48.878,32.663C49.016,32.66 49.154,32.658 49.292,32.658C59.154,32.658 67.176,40.681 67.176,50.543C67.176,50.694 67.175,50.845 67.17,50.995L64.676,50.931C64.679,50.802 64.681,50.672 64.681,50.543C64.681,42.057 57.777,35.153 49.292,35.153ZM49.292,28.496C49.133,28.496 48.973,28.499 48.814,28.502L48.775,26.007C48.948,26.003 49.12,26 49.292,26C62.824,26 73.835,37.01 73.835,50.543C73.835,50.75 73.832,50.958 73.826,51.165L71.332,51.101C71.336,50.916 71.339,50.73 71.339,50.543C71.339,38.386 61.449,28.496 49.292,28.496ZM74.393,62.925C82.375,69.648 75.963,73.964 72.337,77.505C68.08,81.485 52.809,77.273 37.672,61.773C22.808,46.188 19.23,30.735 23.398,26.664C27.024,23.124 31.579,16.906 37.931,25.223C44.458,33.544 41.119,35.742 37.222,39.371C34.686,41.847 39.979,48.54 45.467,54.336C51.045,60.048 57.428,65.68 60.146,63.026C63.864,59.394 66.23,56.2 74.393,62.925Z" style="fill:rgb(255,200,0);"/>
    </g>
</svg>
