<?xml version="1.0" encoding="UTF-8" standalone="no"?>
<!DOCTYPE svg PUBLIC "-//W3C//DTD SVG 1.1//EN" "http://www.w3.org/Graphics/SVG/1.1/DTD/svg11.dtd">
<svg width="100%" height="100%" viewBox="0 0 80 80" version="1.1" xmlns="http://www.w3.org/2000/svg" xmlns:xlink="http://www.w3.org/1999/xlink" xml:space="preserve" xmlns:serif="http://www.serif.com/" style="fill-rule:evenodd;clip-rule:evenodd;stroke-linejoin:round;stroke-miterlimit:2;">
    <g transform="matrix(0.820413,0,-0.413942,0.39924,-192.943,2.60763)">
        <path d="M380.657,128.497C393.39,128.497 403.728,138.835 403.728,151.568C403.728,174.427 380.657,191.701 380.657,191.701C380.657,191.701 357.587,172.946 357.587,151.568C357.587,138.835 367.924,128.497 380.657,128.497Z" style="fill:url(#_Linear1);"/>
    </g>
    <g transform="matrix(1.2386,0,0,1.2386,-431.484,-158.299)">
        <path d="M380.657,128.497C393.39,128.497 403.728,138.835 403.728,151.568C403.728,174.427 380.657,191.701 380.657,191.701C380.657,191.701 357.587,172.946 357.587,151.568C357.587,138.835 367.924,128.497 380.657,128.497Z" style="fill:rgb(252,209,65);"/>
    </g>
    <g transform="matrix(0.227802,0,0,0.227802,-30.7273,-47.9793)">
        <g transform="matrix(-0.64352,-0.76543,-0.76543,0.64352,268.885,322.581)">
            <path d="M-43.143,4.238L-0.693,4.238L8.221,14.841L-44.946,14.775L-43.143,4.238Z" style="fill-rule:nonzero;"/>
        </g>
        <g transform="matrix(1,0,0,1,325.234,345.255)">
            <path d="M0,-19.415L2.033,-17.024L16.541,0L30.347,0L14.022,-19.415L0,-19.415Z" style="fill-rule:nonzero;"/>
        </g>
        <g transform="matrix(1,0,0,1,341.775,410.271)">
            <path d="M0,-62.995L-0.368,-62.561L-36.193,-19.944L-53.045,0L-39.196,0L13.807,-62.995L0,-62.995Z" style="fill-rule:nonzero;"/>
        </g>
        <g transform="matrix(1,0,0,1,296.755,325.839)">
            <path d="M0,62.838L-52.823,0L-66.669,0L-44.014,26.84L-13.63,62.838L0,62.838Z" style="fill-rule:nonzero;"/>
        </g>
        <g transform="matrix(-0.645472,0.763784,0.763784,0.645472,288.207,407.912)">
            <path d="M-9.872,-14.997L15.763,-14.997L6.826,-4.422L-18.674,-4.583L-9.872,-14.997Z" style="fill-rule:nonzero;"/>
        </g>
        <g transform="matrix(-0.645328,-0.763906,-0.763906,0.645328,370.109,268.092)">
            <path d="M-78.966,26.097L3.191,26.097L12.117,36.663L-70.046,36.656L-78.966,26.097Z" style="fill-rule:nonzero;"/>
        </g>
        <g transform="matrix(1,0,0,1,387.325,410.271)">
            <path d="M0,-62.995L-36.199,-19.944L-53.042,0L-39.202,0L13.81,-62.995L0,-62.995Z" style="fill-rule:nonzero;"/>
        </g>
        <g transform="matrix(1,0,0,1,330.037,282.501)">
            <path d="M0,19.52L11.426,19.526L-4.944,-0.006L-18.784,-0.006L-2.482,19.52L0,19.52Z" style="fill-rule:nonzero;"/>
        </g>
        <g transform="matrix(1,0,0,1,364.295,325.84)">
            <path d="M0,19.415L13.825,19.415L-2.509,0L-16.523,0L-6.36,11.94L0,19.415Z" style="fill-rule:nonzero;"/>
        </g>
        <g transform="matrix(1,0,0,1,364.301,410.271)">
            <path d="M0,-62.995L-0.386,-62.526L-36.19,-19.944L-53.033,0L-39.187,0L13.816,-62.995L0,-62.995Z" style="fill-rule:nonzero;"/>
        </g>
        <g transform="matrix(1,0,0,1,302.75,353.086)">
            <path d="M0,-5.81L-9.774,-5.81L-4.917,0L0,-5.81Z" style="fill-rule:nonzero;"/>
        </g>
        <g transform="matrix(1,0,0,1,322.285,325.115)">
            <path d="M0,-0.933C0.042,-0.991 0.102,-1.015 0.155,-1.057C0.204,-1.092 0.233,-1.125 0.275,-1.15C0.431,-1.232 0.593,-1.295 0.763,-1.295L2.443,-1.295L19.164,-21.067L5.27,-21.073L-29.309,20.14L-17.828,20.14L0,-0.933Z" style="fill-rule:nonzero;"/>
        </g>
        <g transform="matrix(1,0,0,1,339.975,389.838)">
            <path d="M0,-43.568L-16.921,-63.446L-44.484,-30.852L-52.707,-21.131C-52.898,-20.907 -53.18,-20.772 -53.476,-20.772C-53.772,-20.772 -54.054,-20.907 -54.245,-21.134L-89.908,-63.446L-91.435,-61.648L-40.388,-0.928C-40.166,-0.744 -40.023,-0.467 -40.023,-0.156C-40.023,0.136 -40.154,0.395 -40.352,0.579L-54.952,18.065L-53.419,19.878L-0.225,-43.3L0,-43.568Z" style="fill:rgb(252,209,65);fill-rule:nonzero;"/>
        </g>
        <g transform="matrix(1,0,0,1,227.915,409.715)">
            <path d="M0,-83.323L-17.05,-63.243L36.492,0L53.419,-20.033L2.518,-80.333L0,-83.323Z" style="fill:rgb(252,209,65);fill-rule:nonzero;"/>
        </g>
        <g transform="matrix(1,0,0,1,345.395,393.99)">
            <path d="M0,-95.213L-13.289,-110.939L-15.253,-108.607L-1.102,-91.72C-0.878,-91.539 -0.737,-91.256 -0.737,-90.948C-0.737,-90.651 -0.874,-90.4 -1.072,-90.213L-18.023,-70.17L-5.677,-70.17C-5.369,-70.17 -5.09,-70.034 -4.893,-69.808L-2.746,-67.247L-0.581,-69.808C-0.533,-69.863 -0.473,-69.89 -0.419,-69.927C-0.377,-69.966 -0.347,-69.999 -0.3,-70.025C-0.15,-70.107 0.018,-70.17 0.189,-70.17L16.864,-70.17C17.158,-70.17 17.439,-70.034 17.637,-69.808L35.555,-48.5C35.776,-48.313 35.914,-48.036 35.914,-47.726C35.914,-47.428 35.779,-47.166 35.582,-46.985L-15.238,13.42L-13.289,15.726L40.13,-47.723L0,-95.213Z" style="fill:rgb(252,209,65);fill-rule:nonzero;"/>
        </g>
        <g transform="matrix(1,0,0,1,296.509,285.174)">
            <path d="M0,69.477L-6.471,61.738C-6.498,61.704 -6.498,61.654 -6.522,61.617C-6.546,61.578 -6.59,61.562 -6.606,61.52C-6.633,61.47 -6.624,61.415 -6.633,61.364C-6.653,61.294 -6.677,61.223 -6.683,61.148L-6.683,61.033C-6.677,60.957 -6.653,60.894 -6.633,60.817C-6.624,60.767 -6.633,60.713 -6.606,60.665C-6.59,60.621 -6.546,60.6 -6.522,60.566C-6.498,60.526 -6.498,60.482 -6.471,60.443L29.255,17.858L18.625,5.118L12.582,-2.116L-25.667,43.185L-1.785,71.593L0,69.477Z" style="fill:rgb(252,209,65);fill-rule:nonzero;"/>
        </g>
        <g transform="matrix(1,0,0,1,355.055,398.596)">
            <path d="M0,-61.084L-9.465,-72.204L-11.085,-70.287L3.36,-53.106C3.581,-52.918 3.719,-52.642 3.719,-52.332C3.719,-52.04 3.599,-51.778 3.392,-51.595L-47.676,9.097L-45.963,11.12L-45.801,10.93L7.456,-52.326L0,-61.084Z" style="fill:rgb(252,209,65);fill-rule:nonzero;"/>
        </g>
    </g>
    <defs>
        <linearGradient id="_Linear1" x1="0" y1="0" x2="1" y2="0" gradientUnits="userSpaceOnUse" gradientTransform="matrix(-23.0553,-54.9599,31.5923,9.60655,380.657,191.701)"><stop offset="0" style="stop-color:black;stop-opacity:0.42"/><stop offset="1" style="stop-color:black;stop-opacity:0"/></linearGradient>
    </defs>
</svg>
