<?xml version="1.0" encoding="UTF-8" standalone="no"?>
<!DOCTYPE svg PUBLIC "-//W3C//DTD SVG 1.1//EN" "http://www.w3.org/Graphics/SVG/1.1/DTD/svg11.dtd">
<svg width="100%" height="100%" viewBox="0 0 20 20" version="1.1" xmlns="http://www.w3.org/2000/svg" xmlns:xlink="http://www.w3.org/1999/xlink" xml:space="preserve" xmlns:serif="http://www.serif.com/" style="fill-rule:evenodd;clip-rule:evenodd;stroke-linejoin:round;stroke-miterlimit:2;">
    <g transform="matrix(1,0,0,1,0.22618,-0.165444)">
        <path d="M8.94,5.883L7.281,7.493C6.951,7.814 6.423,7.806 6.103,7.476C5.782,7.146 5.79,6.618 6.12,6.297L9.194,3.315C9.349,3.164 9.556,3.08 9.774,3.08C9.991,3.08 10.198,3.164 10.354,3.315L13.427,6.297C13.757,6.618 13.765,7.146 13.445,7.476C13.125,7.806 12.597,7.814 12.266,7.493L10.607,5.883L10.607,12.92C10.607,13.38 10.234,13.753 9.774,13.753C9.314,13.753 8.94,13.38 8.94,12.92L8.94,5.883ZM4.169,9.475C4.169,9.015 4.542,8.642 5.002,8.642C5.462,8.642 5.836,9.015 5.836,9.475L5.836,15.585L13.712,15.585L13.712,9.422C13.712,8.962 14.085,8.588 14.545,8.588C15.005,8.588 15.379,8.962 15.379,9.422L15.379,16.418C15.379,16.878 15.006,17.251 14.545,17.251L5.002,17.251C4.542,17.251 4.169,16.878 4.169,16.418L4.169,9.475Z"/>
    </g>
</svg>
